<?xml version="1.0" encoding="UTF-8"?>
<svg id="Layer_2" data-name="Layer 2" xmlns="http://www.w3.org/2000/svg" xmlns:xlink="http://www.w3.org/1999/xlink" viewBox="0 0 320.34 290.14">
  <defs>
    <style>
      .cls-1 {
        fill: url(#linear-gradient-2);
      }

      .cls-2 {
        fill: none;
      }

      .cls-3 {
        fill: url(#linear-gradient-3);
      }

      .cls-4 {
        fill: url(#linear-gradient);
      }
    </style>
    <linearGradient id="linear-gradient" x1="4.26" y1="262.49" x2="263.8" y2="-36.48" gradientUnits="userSpaceOnUse">
      <stop offset="0" stop-color="#8255a3"/>
      <stop offset="1" stop-color="#483e98"/>
    </linearGradient>
    <linearGradient id="linear-gradient-2" x1="142.94" y1="245.25" x2="309.11" y2="245.25" gradientUnits="userSpaceOnUse">
      <stop offset="0" stop-color="#5d439a"/>
      <stop offset="1" stop-color="#1f1a4f"/>
    </linearGradient>
    <linearGradient id="linear-gradient-3" x1="52.48" y1="290.65" x2="277.39" y2="100.36" gradientUnits="userSpaceOnUse">
      <stop offset="0" stop-color="#1c1246"/>
      <stop offset="1" stop-color="#4f2f8e"/>
    </linearGradient>
  </defs>
  <g id="Layer_1-2" data-name="Layer 1">
    <path class="cls-4" d="M92.54,290.11s-1.89,.51-4.29-2.74-6.17-11.66-5.49-27.6,.17-22.63,6.69-38.91,18-26.74,29.83-36.17c0,0,24.86-14.4,36.69-33.94s14.91-26.91,13.03-44.74-14.4-27.77-17.66-29.83-4.69-4.29-10.63-5.89-6.06-.29-6.06-.29c0,0-.46,1.43,.23,2.86s7.43,10.74,9.03,15.89,4.34,10.74,4.06,18.46-.8,15.09-9.26,24-9.14,9.77-14.51,11.83-15.83,2.34-23.77,5.09-16.23,4.74-20.86,11.49-2.57,2.11-6,9.54-3.26,12.86-3.26,13.09-14.17,3.77-21.49,.57-12.91-15.6-13.83-19.31-2.46-10.63-1.49-17.54c0,0,8-6.8,12.11-13.6s6.91-6.8,12.51-23.43,8.17-27.37,8.74-31.2l.34-2.46L1.17,5.08S-.49,2,.14,.51s5.43,.74,5.43,.74L80.49,56.91s-.17,.51,.69,.4,10-10.4,10-10.4c0,0,6.11-4.97,7.6-10.11s2.57-11.2,2.4-18.23-2.23-14.74-5.49-17.89c0,0,5.43-2.29,16.29,2.63s15.31,8.34,18.86,12.69,2.51,6.06,2.51,6.06c0,0,12.23-4.91,27.31-5.26s30.4-1.03,51.09,6.97,32.57,16.46,43.77,27.54,14.29,13.37,20.11,28.69,6.4,22.06,5.94,36.46-5.14,19.77-5.14,19.77c0,0,.46-3.54-5.26-14.06s-6.74-9.03-6.74-9.03c0,0,5.26,7.66,8.11,20.46s6.4,16.46,10.17,18.17,5.14,1.71,9.26,1.83,7.2-.34,9.14-1.37,10.63-5.94,12.91-9.94,2.51-8.91,2.51-8.91c0,0,1.71,1.94,2.86,6.63s1.37,10.51,0,16.8-12.69,27.77-24.11,35.43-23.43,16.11-46.29,21.71-61.83,10.74-83.31,18.29-20.57,5.94-36.57,16.69-18.29,13.71-24,22.17-10.29,14.17-12.57,19.03Z"/>
    <path class="cls-1" d="M142.94,286.28s4-10.97,14.4-20.11,13.14-12.23,20.91-15.31,13.83-6.29,34.06-8.57,34.97-5.6,40.23-7.2,12.69-1.14,29.37-10.63,19.66-12.91,23.89-17.37,3.2-2.4,3.2-2.4c0,0,1.03,11.66-9.94,27.2s-15.31,22.51-30.29,30.17c0,0-8.8,4.69-18.06,7.09s-16.8,4.23-30.29,4.69-39.2,4.8-50.17,7.2-19.66,3.54-27.31,5.26Z"/>
    <path class="cls-3" d="M319.4,156.8c-1.37,6.28-12.69,27.77-24.11,35.43-11.43,7.65-23.43,16.11-46.29,21.71-22.86,5.6-61.83,10.74-83.31,18.29-21.49,7.54-20.58,5.94-36.58,16.68s-18.28,13.72-24,22.17c-5.71,8.46-10.28,14.17-12.57,19.03,0,0-1.6-15.48,5.26-24.63,6.86-9.14,18.29-24.8,26.63-30.4,8.34-5.6,19.1-13.71,34.06-19.88,14.97-6.17,34.85-12.57,49.82-25.49,14.98-12.91,23.2-24.57,27.66-33.37s16.69-25.71,18.06-50.06c1.37-24.34-5.45-47.72-12.69-59.77-6.74-11.22-10.11-13.67-10.54-13.96,9.98,5.56,17.49,11.61,24.71,18.76,11.2,11.09,14.29,13.37,20.12,28.69,5.83,15.31,6.4,22.05,5.94,36.45-.46,14.4-5.14,19.78-5.14,19.78,0,0,.46-3.55-5.26-14.06-5.71-10.52-6.74-9.03-6.74-9.03,0,0,5.26,7.66,8.11,20.46,2.86,12.8,6.4,16.45,10.17,18.17,3.78,1.71,5.15,1.71,9.26,1.83,4.12,.11,7.2-.35,9.14-1.37,1.95-1.03,10.63-5.95,12.92-9.95,2.28-4,2.51-8.91,2.51-8.91,0,0,1.72,1.94,2.86,6.63,1.14,4.68,1.37,10.51,0,16.8Z"/>
    <path class="cls-2" d="M230.75,32.53s.02,.01,.05,.02c.43,.29,3.8,2.74,10.54,13.96,7.24,12.05,14.06,35.43,12.69,59.77-1.37,24.35-13.6,41.26-18.06,50.06-4.46,8.8-12.68,20.46-27.66,33.37-14.97,12.92-34.85,19.32-49.82,25.49-14.96,6.17-25.72,14.28-34.06,19.88-8.34,5.6-19.77,21.26-26.63,30.4-6.86,9.15-5.26,24.63-5.26,24.63"/>
  </g>
</svg>