<svg width="495" height="436" viewBox="0 0 495 436" fill="none" xmlns="http://www.w3.org/2000/svg">
<path fill-rule="evenodd" clip-rule="evenodd" d="M1.18997 575.222C18.9141 457.013 55.4401 390.81 101.241 350.507C146.735 310.474 201.411 295.965 256.039 281.468L257.172 281.168C312.161 266.574 367.037 251.815 412.227 210.803C457.423 169.785 492.899 102.541 509.187 -16.9536L508.689 -17.017C492.41 102.41 456.967 169.527 411.889 210.437C366.803 251.354 312.048 266.09 257.045 280.687L255.866 281L255.866 281C201.268 295.488 146.492 310.024 100.908 350.136C54.9886 390.543 18.4274 456.874 0.692835 575.152L1.18997 575.222ZM12.4009 581.702C30.1251 463.494 66.651 397.29 112.452 356.987C157.946 316.954 212.622 302.445 267.25 287.949L268.383 287.648C323.372 273.055 378.248 258.295 423.438 217.283C468.634 176.266 504.11 109.022 520.398 -10.4731L519.9 -10.5366C503.621 108.891 468.178 176.007 423.099 216.918C378.014 257.834 323.259 272.57 268.256 287.168L267.077 287.48L267.077 287.48C212.479 301.969 157.703 316.504 112.119 356.616C66.1995 397.024 29.6384 463.354 11.9038 581.632L12.4009 581.702ZM123.749 363.48C77.9479 403.783 41.4219 469.987 23.6978 588.195L23.2006 588.125C40.9352 469.847 77.4964 403.517 123.416 363.109C169 322.997 223.776 308.462 278.374 293.974L278.374 293.973L279.552 293.661C334.556 279.063 389.311 264.328 434.396 223.411C479.475 182.5 514.918 115.384 531.197 -4.04343L531.695 -3.97992C515.407 115.515 479.931 182.759 434.735 223.777C389.545 264.788 334.669 279.548 279.68 294.141L278.547 294.442C223.918 308.938 169.243 323.447 123.749 363.48ZM34.8697 594.673C52.5938 476.465 89.1198 410.261 134.921 369.958C180.415 329.925 235.09 315.416 289.719 300.919L290.852 300.619C345.841 286.025 400.717 271.266 445.907 230.254C491.103 189.237 526.579 121.992 542.867 2.49759L542.369 2.43413C526.09 121.861 490.647 188.978 445.568 229.889C400.483 270.805 345.728 285.541 290.724 300.138L289.546 300.451L289.546 300.451C234.948 314.939 180.172 329.475 134.588 369.587C88.6683 409.994 52.1071 476.325 34.3725 594.603L34.8697 594.673ZM146.155 376.443C100.354 416.746 63.8282 482.95 46.104 601.158L45.6069 601.088C63.3415 482.81 99.9026 416.48 145.822 376.072C191.406 335.96 246.182 321.425 300.78 306.937L300.781 306.936L301.959 306.624C356.962 292.026 411.717 277.29 456.803 236.374C501.881 195.463 537.324 128.347 553.603 8.91946L554.101 8.98298C537.813 128.478 502.338 195.722 457.141 236.74C411.951 277.751 357.075 292.511 302.086 307.104L300.953 307.405C246.325 321.901 191.649 336.41 146.155 376.443ZM57.2915 607.639C75.0157 489.43 111.542 423.227 157.343 382.924C202.837 342.891 257.512 328.382 312.141 313.885L313.274 313.585C368.262 298.991 423.139 284.232 468.328 243.22C513.525 202.202 549.001 134.958 565.289 15.4634L564.791 15.3999C548.512 134.827 513.069 201.944 467.99 242.854C422.905 283.771 368.15 298.507 313.146 313.104L311.968 313.417L311.968 313.417C257.37 327.905 202.594 342.441 157.01 382.553C111.09 422.96 74.529 489.291 56.7944 607.569L57.2915 607.639ZM168.608 389.409C122.807 429.712 86.2813 495.916 68.5572 614.124L68.06 614.054C85.7946 495.776 122.356 429.446 168.275 389.038C213.86 348.926 268.636 334.391 323.233 319.902L323.234 319.902L324.412 319.59C379.416 304.992 434.171 290.256 479.256 249.34C524.334 208.429 559.777 141.313 576.056 21.8853L576.554 21.9488C560.266 141.443 524.791 208.688 479.594 249.705C434.404 290.717 379.528 305.476 324.539 320.07L323.406 320.371C268.778 334.867 214.102 349.376 168.608 389.409ZM79.7915 620.607C97.5157 502.399 134.042 436.195 179.843 395.892C225.337 355.859 280.012 341.351 334.641 326.854L335.774 326.553C390.762 311.96 445.639 297.2 490.829 256.189C536.025 215.171 571.501 147.927 587.789 28.4322L587.291 28.3687C571.012 147.796 535.569 214.913 490.49 255.823C445.405 296.74 390.65 311.476 335.646 326.073L334.468 326.386L334.468 326.386C279.87 340.874 225.094 355.41 179.51 395.522C133.59 435.929 97.029 502.259 79.2944 620.537L79.7915 620.607ZM191.1 402.378C145.299 442.681 108.773 508.884 91.0493 627.093L90.5522 627.023C108.287 508.745 144.848 442.414 190.768 402.007C236.352 361.895 291.128 347.359 345.726 332.871L345.726 332.871L346.904 332.558C401.908 317.961 456.663 303.225 501.748 262.308C546.826 221.398 582.269 154.281 598.548 34.854L599.047 34.9175C582.758 154.412 547.283 221.656 502.086 262.674C456.897 303.686 402.02 318.445 347.031 333.039L345.899 333.339C291.27 347.836 236.594 362.345 191.1 402.378ZM102.307 633.586C120.031 515.378 156.557 449.174 202.358 408.871C247.852 368.838 302.528 354.329 357.156 339.832L358.289 339.532C413.278 324.938 468.154 310.179 513.344 269.167C558.541 228.15 594.016 160.905 610.304 41.4107L609.806 41.3472C593.527 160.775 558.084 227.891 513.006 268.802C467.921 309.718 413.166 324.454 358.162 339.051L356.984 339.364L356.983 339.364C302.385 353.853 247.609 368.388 202.025 408.5C156.106 448.908 119.545 515.238 101.81 633.516L102.307 633.586ZM213.53 415.347C167.729 455.649 131.203 521.853 113.479 640.062L112.982 639.992C130.716 521.714 167.278 455.383 213.197 414.976C258.781 374.864 313.557 360.328 368.155 345.84L368.156 345.84L369.334 345.527C424.337 330.93 479.092 316.194 524.178 275.277C569.256 234.367 604.699 167.25 620.978 47.8228L621.476 47.8863C605.188 167.381 569.713 234.625 524.516 275.643C479.326 316.654 424.45 331.414 369.461 346.007L368.328 346.308C313.7 360.805 259.024 375.314 213.53 415.347ZM124.706 646.54C142.43 528.332 178.956 462.128 224.757 421.825C270.251 381.792 324.926 367.283 379.555 352.787L380.688 352.486C435.677 337.892 490.553 323.133 535.743 282.121C580.939 241.104 616.415 173.859 632.703 54.3648L632.205 54.3013C615.926 173.729 580.483 240.845 535.404 281.756C490.319 322.672 435.564 337.408 380.56 352.006L379.382 352.318L379.382 352.318C324.784 366.807 270.008 381.342 224.424 421.454C178.504 461.862 141.943 528.192 124.208 646.47L124.706 646.54ZM235.991 428.313C190.19 468.616 153.664 534.82 135.94 653.028L135.443 652.958C153.177 534.68 189.739 468.35 235.658 427.942C281.242 387.83 336.018 373.295 390.616 358.807L390.616 358.806L391.795 358.494C446.798 343.896 501.553 329.161 546.639 288.244C591.717 247.333 627.16 180.217 643.439 60.7896L643.937 60.8531C627.649 180.348 592.173 247.592 546.977 288.61C501.787 329.621 446.911 344.381 391.922 358.974L390.789 359.275C336.161 373.771 281.485 388.28 235.991 428.313ZM147.174 659.514C164.899 541.305 201.424 475.102 247.225 434.799C292.719 394.766 347.395 380.257 402.024 365.76L403.156 365.46C458.145 350.866 513.022 336.107 558.211 295.095C603.408 254.077 638.883 186.833 655.172 67.3384L654.674 67.275C638.394 186.702 602.951 253.819 557.873 294.729C512.788 335.646 458.033 350.382 403.029 364.979L401.851 365.292L401.85 365.292C347.253 379.78 292.477 394.316 246.893 434.428C200.973 474.835 164.412 541.166 146.677 659.444L147.174 659.514ZM258.452 441.282C212.651 481.585 176.125 547.789 158.401 665.997L157.904 665.927C175.638 547.649 212.2 481.319 258.119 440.911C303.703 400.799 358.479 386.264 413.077 371.775L413.077 371.775L414.256 371.463C469.259 356.865 524.014 342.129 569.099 301.213C614.178 260.302 649.621 193.186 665.9 73.7583L666.398 73.8218C650.11 193.316 614.634 260.561 569.438 301.578C524.248 342.59 469.372 357.35 414.383 371.943L413.25 372.244C358.622 386.74 303.946 401.249 258.452 441.282ZM169.651 672.48C187.375 554.271 223.901 488.067 269.702 447.764C315.196 407.732 369.872 393.223 424.5 378.726L425.633 378.425C480.622 363.832 535.498 349.072 580.688 308.061C625.884 267.043 661.36 199.799 677.648 80.3043L677.15 80.2408C660.871 199.668 625.428 266.785 580.349 307.695C535.264 348.612 480.509 363.348 425.506 377.945L424.327 378.258L424.327 378.258C369.729 392.746 314.953 407.282 269.369 447.394C223.45 487.801 186.888 554.132 169.154 672.409L169.651 672.48ZM280.96 454.255C235.159 494.558 198.633 560.761 180.909 678.97L180.412 678.9C198.146 560.622 234.707 494.291 280.627 453.884C326.211 413.772 380.987 399.236 435.585 384.748L435.585 384.748L436.763 384.435C491.767 369.838 546.522 355.102 591.607 314.185C636.686 273.275 672.129 206.158 688.408 86.731L688.906 86.7945C672.618 206.289 637.142 273.533 591.946 314.551C546.756 355.563 491.88 370.322 436.891 384.916L435.758 385.216L435.758 385.216C381.129 399.713 326.454 414.222 280.96 454.255ZM192.143 685.451C209.867 567.243 246.393 501.039 292.194 460.736C337.688 420.703 392.364 406.194 446.992 391.698L446.992 391.698L448.125 391.397C503.114 376.804 557.99 362.044 603.18 321.033C648.377 280.015 683.852 212.771 700.14 93.2759L699.642 93.2125C683.363 212.64 647.92 279.756 602.842 320.667C557.757 361.583 503.002 376.319 447.998 390.917L446.82 391.229L446.819 391.229C392.221 405.718 337.445 420.253 291.861 460.365C245.942 500.773 209.381 567.103 191.646 685.381L192.143 685.451ZM303.444 467.223C257.643 507.526 221.117 573.73 203.393 691.939L202.896 691.868C220.631 573.59 257.192 507.26 303.111 466.853C348.696 426.74 403.472 412.205 458.07 397.717L459.248 397.404C514.252 382.807 569.007 368.071 614.092 327.154C659.17 286.244 694.613 219.127 710.892 99.6997L711.39 99.7633C695.102 219.258 659.627 286.502 614.43 327.52C569.24 368.531 514.364 383.291 459.375 397.884L458.242 398.185C403.614 412.682 348.938 427.191 303.444 467.223ZM214.549 698.418C232.274 580.21 268.799 514.006 314.6 473.703C360.094 433.67 414.77 419.161 469.398 404.665L469.399 404.664L470.531 404.364C525.52 389.77 580.397 375.011 625.586 333.999C670.783 292.982 706.258 225.737 722.547 106.243L722.049 106.179C705.769 225.607 670.326 292.723 625.248 333.634C580.163 374.55 525.408 389.286 470.404 403.883L469.226 404.196L469.225 404.196C414.628 418.685 359.852 433.22 314.268 473.332C268.348 513.74 231.787 580.07 214.052 698.348L214.549 698.418ZM325.843 480.182C280.042 520.485 243.516 586.689 225.792 704.898L225.294 704.827C243.029 586.549 279.59 520.219 325.51 479.812C371.094 439.699 425.87 425.164 480.468 410.676L481.646 410.363C536.65 395.766 591.405 381.03 636.49 340.113C681.569 299.203 717.012 232.086 733.291 112.659L733.789 112.722C717.501 232.217 682.025 299.461 636.829 340.479C591.639 381.49 536.762 396.25 481.774 410.843L480.641 411.144C426.012 425.641 371.337 440.15 325.843 480.182ZM237.026 711.384C254.75 593.175 291.276 526.972 337.077 486.669C382.571 446.636 437.247 432.127 491.875 417.63L493.008 417.33C547.997 402.736 602.873 387.977 648.063 346.965C693.259 305.947 728.735 238.703 745.023 119.209L744.525 119.145C728.246 238.572 692.803 305.689 647.724 346.599C602.639 387.516 547.884 402.252 492.881 416.849L491.702 417.162L491.702 417.162C437.104 431.65 382.328 446.186 336.744 486.298C290.824 526.705 254.263 593.036 236.529 711.314L237.026 711.384ZM348.335 493.161C302.534 533.464 266.008 599.668 248.284 717.876L247.787 717.806C265.521 599.528 302.082 533.198 348.002 492.79C393.586 452.678 448.362 438.143 502.96 423.654L502.96 423.654L504.138 423.342C559.142 408.744 613.897 394.008 658.982 353.092C704.061 312.181 739.504 245.065 755.783 125.637L756.281 125.701C739.993 245.195 704.517 312.44 659.321 353.457C614.131 394.469 559.255 409.228 504.266 423.822L503.133 424.123C448.504 438.619 393.829 453.128 348.335 493.161ZM259.495 724.356C277.219 606.147 313.745 539.943 359.546 499.64C405.04 459.608 459.715 445.099 514.344 430.602L515.477 430.301C570.466 415.708 625.342 400.948 670.532 359.937C715.728 318.919 751.204 251.675 767.492 132.18L766.994 132.117C750.715 251.544 715.272 318.661 670.193 359.571C625.108 400.488 570.353 415.224 515.349 429.821L514.171 430.134L514.171 430.134C459.573 444.622 404.797 459.158 359.213 499.27C313.293 539.677 276.732 606.007 258.998 724.285L259.495 724.356Z" fill="url(#paint0_linear_51_23)"/>
<defs>
<linearGradient id="paint0_linear_51_23" x1="219.873" y1="108.642" x2="570.534" y2="422.166" gradientUnits="userSpaceOnUse">
<stop stop-color="#2B2A39"/>
<stop offset="1" stop-color="#4F4E61"/>
</linearGradient>
</defs>
</svg>
